<svg xmlns="http://www.w3.org/2000/svg" width="19.217" height="22.937" viewBox="0 0 19.217 22.937">
  <defs>
    <style>
      .cls-1 {
        fill: #262627;
      }
    </style>
  </defs>
  <path id="Bookmark" class="cls-1" d="M705.328,999.537a.724.724,0,0,1-.564-.225l-8.228-7.214-8.228,7.214a.766.766,0,0,1-.9.113.884.884,0,0,1-.507-.789v-21.19a.867.867,0,0,1,.845-.845h17.526a.867.867,0,0,1,.845.845v21.19a.85.85,0,0,1-.507.789A.431.431,0,0,1,705.328,999.537Zm-8.735-9.411a.724.724,0,0,1,.564.225l7.383,6.424V978.291H688.647v18.484l7.382-6.424A.724.724,0,0,1,696.593,990.125Z" transform="translate(-686.9 -976.6)"/>
</svg>
