<svg xmlns="http://www.w3.org/2000/svg" width="23.658" height="23.652" viewBox="0 0 23.658 23.652">
  <defs>
    <style>
      .cls-1 {
        fill: #262627;
        stroke: #262627;
      }
    </style>
  </defs>
  <path id="Comment" class="cls-1" d="M122.363,976.379h0a10.037,10.037,0,0,1,2.8.377,9.9,9.9,0,0,1,7.065,7.227,10.266,10.266,0,0,1-.755,7.173,2,2,0,0,0-.162,1.564l.971,3.614-3.452-.917a2.021,2.021,0,0,0-.593-.054,2.456,2.456,0,0,0-1.079.27,10.107,10.107,0,0,1-7.389.917,11.313,11.313,0,0,1-7.335-7.173,10.478,10.478,0,0,1,1.78-9.007,10.322,10.322,0,0,1,8.144-3.991m0-1.079a11.337,11.337,0,0,0-10.894,14.346,12.41,12.41,0,0,0,8.144,7.982,12.793,12.793,0,0,0,2.8.324,11.05,11.05,0,0,0,5.339-1.348,1.088,1.088,0,0,1,.593-.162.4.4,0,0,1,.27.054l4.746,1.294h.054a.294.294,0,0,0,.27-.378l-1.294-4.908a1.046,1.046,0,0,1,.108-.809,11.607,11.607,0,0,0,.809-7.928,11.127,11.127,0,0,0-7.82-8.036,13.208,13.208,0,0,0-3.128-.431Z" transform="translate(-110.544 -974.8)"/>
</svg>
