<svg xmlns="http://www.w3.org/2000/svg" width="26.955" height="24.191" viewBox="0 0 26.955 24.191">
  <defs>
    <style>
      .cls-1 {
        fill: #262627;
        stroke: #262627;
      }
    </style>
  </defs>
  <path id="Heart" class="cls-1" d="M46.624,975.933a5.834,5.834,0,0,1,3.074.917,7.483,7.483,0,0,1,2.265,9.654c-1.564,3.02-8.629,8.629-10.733,10.247a.917.917,0,0,1-.27.108.349.349,0,0,1-.27-.108c-2.1-1.672-9.222-7.227-10.733-10.247a7.6,7.6,0,0,1,2.265-9.654,5.694,5.694,0,0,1,3.074-.917,5.97,5.97,0,0,1,4.8,2.589l.863,1.24.863-1.186a5.961,5.961,0,0,1,4.8-2.643m0-1.133a7.02,7.02,0,0,0-5.663,3.02A7.02,7.02,0,0,0,35.3,974.8a6.875,6.875,0,0,0-3.613,1.079,8.659,8.659,0,0,0-2.643,11.164c1.618,3.182,8.575,8.683,11.056,10.625a1.461,1.461,0,0,0,1.834,0c2.481-1.942,9.438-7.443,11.056-10.625a8.794,8.794,0,0,0-2.643-11.164,7.547,7.547,0,0,0-3.721-1.079Z" transform="translate(-27.52 -974.3)"/>
</svg>
