<svg id="Camada_1" data-name="Camada 1" xmlns="http://www.w3.org/2000/svg" viewBox="0 0 30.86 28.76"><defs><style>.cls-1{fill:#fff;}</style></defs><path class="cls-1" d="M31.43,16.24a2.55,2.55,0,0,1-.68,1,1.8,1.8,0,0,1-2.16,0,3.92,3.92,0,0,1-.37-.34L16.87,5.58a1.12,1.12,0,0,0-1.25-.36,1.68,1.68,0,0,0-.52.4L3.75,17a1.9,1.9,0,0,1-1.46.65,1.7,1.7,0,0,1-1.53-1,1.68,1.68,0,0,1,.17-1.82,2.17,2.17,0,0,1,.32-.36L12.66,3a4.64,4.64,0,0,1,6.68,0L22.41,6.1l.29.28c0-.65,0-1.24,0-1.82A1.71,1.71,0,0,1,23.56,3a1.76,1.76,0,0,1,2.68,1.55c0,1.68,0,3.36,0,5a.7.7,0,0,0,.22.55c1.35,1.33,2.67,2.67,4,4a3.26,3.26,0,0,1,1,1.36Z" transform="translate(-0.57 -1.62)"/><path class="cls-1" d="M4.86,23.53c0-1.23,0-2.47,0-3.7a1.18,1.18,0,0,1,.36-.89q5-5,10.06-10a.91.91,0,0,1,1.48,0l10,10a1.19,1.19,0,0,1,.37.91c0,2.4,0,4.8,0,7.2a3.26,3.26,0,0,1-3.29,3.33c-1.58,0-3.16,0-4.73,0-.28,0-.28-.13-.28-.33q0-3.6,0-7.2c0-.29-.08-.37-.37-.36-1.67,0-3.35,0-5,0-.27,0-.35.06-.35.34,0,2.4,0,4.8,0,7.2,0,.28-.08.35-.35.35H8.21a3.22,3.22,0,0,1-3.32-2.68,3.65,3.65,0,0,1,0-.66C4.85,25.86,4.86,24.7,4.86,23.53Z" transform="translate(-0.57 -1.62)"/></svg>