<svg xmlns="http://www.w3.org/2000/svg" width="25.653" height="22.813" viewBox="0 0 25.653 22.813">
  <defs>
    <style>
      .cls-1 {
        fill: #262627;
      }
    </style>
  </defs>
  <path id="Share" class="cls-1" d="M12.642,22.813a.8.8,0,0,1-.647-.647L9.676,9.438.292,1.456A.748.748,0,0,1,.076.539.811.811,0,0,1,.831,0H24.843a.738.738,0,0,1,.531.212.979.979,0,0,1,.159.166.732.732,0,0,1,.095.594.734.734,0,0,1-.173.352L13.505,22.382a.654.654,0,0,1-.7.432Zm.594-3.128L22.672,2.959,11.348,9.43ZM10.565,8.015,21.8,1.618H3.042Z"/>
</svg>
